<?xml version="1.0" standalone="no"?><!DOCTYPE svg PUBLIC "-//W3C//DTD SVG 1.1//EN" "http://www.w3.org/Graphics/SVG/1.1/DTD/svg11.dtd"><svg xmlns="http://www.w3.org/2000/svg" version="1.1" width="1607.448" height="1826.261" xmlns:xlink="http://www.w3.org/1999/xlink" xlink="http://www.w3.org/1999/xlink" style="position:relative;overflow:hidden;" viewBox="2651 1111.902 1607.448 1826.261"><defs/><g><g width="150" height="75" transform="scale(1,1) translate(2663.5,1987.333)"><g stroke="#B3D7EE" stroke-opacity="1" stroke-width="1" stroke-dasharray="none" width="150" height="75" transform="scale(1,1) translate(0,0)" fill="#B3D7EE" fill-opacity="1"><rect width="150" height="75"/></g><g width="143.33333333333331" height="68.33333333333333" transform="scale(1,1) translate(3.333,3.333)"><text width="143.33333333333331" height="15.277776718139648" transform="scale(1,1) translate(0,26.52777830759684)" xml:space="preserve"><tspan xml:space="preserve" text-rendering="optimizeSpeed" font-size="13.88888888888889" font-weight="normal" font-style="normal" text-decoration="none" fill="#333333" opacity="1" x="42.329" text-anchor="start" y="12.5" textLength="54.816349029541016" style="font-family: Arial, Helvetica Neue, Helvetica, sans-serif;">Scenario</tspan></text></g></g><g width="193.5" height="920.862" transform="scale(1,1) translate(2813.5,1564.402)"><g fill="#545454" stroke="#545454" stroke-opacity="1" transform="scale(1,1) translate(0,0)"><path fill="none" stroke-width="1" stroke-dasharray="none" d="M0,460.431 L0,460.431 M0,460.431 L0,460.431 M0,460.431 L0,460.431 M0,460.431 L193.5,0 M0,460.431 L193.5,920.862"/><g><g stroke-dasharray="none"><path d="M-3,457.431L3,457.431L3,463.431L-3,463.431z" stroke-width="0" fill="none"/></g></g></g><g stroke-width="0" stroke-dasharray="none" fill="#FFFFFF" opacity="1" width="64.534" height="17.278" transform="scale(1,1) translate(64.483,221.577)"><rect width="64.534" height="17.278"/></g><g width="62.53390884399414" height="460.43113804456783" transform="scale(1,1) translate(65.483,222.577)"><text width="62.53390884399414" height="15.277776718139648" transform="scale(1,1) translate(0,0)" xml:space="preserve"><tspan xml:space="preserve" text-rendering="optimizeSpeed" font-size="13.88888888888889" font-weight="normal" font-style="normal" text-decoration="none" fill="#333333" opacity="1" x="0" text-anchor="start" y="12.5" textLength="62.53390884399414" style="font-family: Arial, Helvetica Neue, Helvetica, sans-serif;">Portfolio a</tspan></text></g><g stroke-width="0" stroke-dasharray="none" fill="#FFFFFF" opacity="1" width="64.534" height="17.278" transform="scale(1,1) translate(64.483,682.008)"><rect width="64.534" height="17.278"/></g><g width="62.53390884399414" height="460.43113804456783" transform="scale(1,1) translate(65.483,683.008)"><text width="62.53390884399414" height="15.277776718139648" transform="scale(1,1) translate(0,0)" xml:space="preserve"><tspan xml:space="preserve" text-rendering="optimizeSpeed" font-size="13.88888888888889" font-weight="normal" font-style="normal" text-decoration="none" fill="#333333" opacity="1" x="0" text-anchor="start" y="12.5" textLength="62.53390884399414" style="font-family: Arial, Helvetica Neue, Helvetica, sans-serif;">Portfolio b</tspan></text></g></g><g width="193.5" height="460.797" transform="scale(1,1) translate(3157,2254.866)"><g fill="#545454" stroke="#545454" stroke-opacity="1" transform="scale(1,1) translate(0,0)"><path fill="none" stroke-width="1" stroke-dasharray="none" d="M0,230.399 L0,230.399 M0,230.399 L0,230.399 M0,230.399 L0,230.399 M0,230.399 L193.5,0 M0,230.399 L193.5,460.797"/><g><g stroke-dasharray="none"><path d="M-5,225.399L5,225.399L5,235.399L-5,235.399z" stroke-width="0" fill="none"/></g></g></g><g stroke-width="0" stroke-dasharray="none" fill="#FFFFFF" opacity="1" width="112.413" height="17.278" transform="scale(1,1) translate(40.544,106.56)"><rect width="112.413" height="17.278"/></g><g width="110.41258239746094" height="230.39853647415623" transform="scale(1,1) translate(41.544,107.56)"><text width="110.41258239746094" height="15.277776718139648" transform="scale(1,1) translate(0,0)" xml:space="preserve"><tspan xml:space="preserve" text-rendering="optimizeSpeed" font-size="13.88888888888889" font-weight="normal" font-style="normal" text-decoration="none" fill="#333333" opacity="1" x="0" text-anchor="start" y="12.5" textLength="110.41258239746094" style="font-family: Arial, Helvetica Neue, Helvetica, sans-serif;">Sub Scenario 1 /1</tspan></text></g><g stroke-width="0" stroke-dasharray="none" fill="#FFFFFF" opacity="1" width="112.413" height="17.278" transform="scale(1,1) translate(40.544,336.959)"><rect width="112.413" height="17.278"/></g><g width="110.41258239746094" height="230.39853647415623" transform="scale(1,1) translate(41.544,337.959)"><text width="110.41258239746094" height="15.277776718139648" transform="scale(1,1) translate(0,0)" xml:space="preserve"><tspan xml:space="preserve" text-rendering="optimizeSpeed" font-size="13.88888888888889" font-weight="normal" font-style="normal" text-decoration="none" fill="#333333" opacity="1" x="0" text-anchor="start" y="12.5" textLength="110.41258239746094" style="font-family: Arial, Helvetica Neue, Helvetica, sans-serif;">Sub Scenario 1 /2</tspan></text></g></g><g width="150" height="75" transform="scale(1,1) translate(3007,2447.764)"><g stroke="#B3D7EE" stroke-opacity="1" stroke-width="1" stroke-dasharray="none" width="150" height="75" transform="scale(1,1) translate(0,0)" fill="#B3D7EE" fill-opacity="1"><rect width="150" height="75"/></g><g width="143.33333333333331" height="68.33333333333333" transform="scale(1,1) translate(3.333,3.333)"><text width="143.33333333333331" height="15.277776718139648" transform="scale(1,1) translate(0,26.52777830759684)" xml:space="preserve"><tspan xml:space="preserve" text-rendering="optimizeSpeed" font-size="13.88888888888889" font-weight="normal" font-style="normal" text-decoration="none" fill="#333333" opacity="1" x="24.181" text-anchor="start" y="12.5" textLength="94.97068786621094" style="font-family: Arial, Helvetica Neue, Helvetica, sans-serif;">Sub Scenario 1</tspan></text></g></g><g width="150" height="75" transform="scale(1,1) translate(3007,1526.902)"><g stroke="#B3D7EE" stroke-opacity="1" stroke-width="1" stroke-dasharray="none" width="150" height="75" transform="scale(1,1) translate(0,0)" fill="#B3D7EE" fill-opacity="1"><rect width="150" height="75"/></g><g width="143.33333333333331" height="68.33333333333333" transform="scale(1,1) translate(3.333,3.333)"><text width="143.33333333333331" height="15.277776718139648" transform="scale(1,1) translate(0,26.52777830759684)" xml:space="preserve"><tspan xml:space="preserve" text-rendering="optimizeSpeed" font-size="13.88888888888889" font-weight="normal" font-style="normal" text-decoration="none" fill="#333333" opacity="1" x="22.252" text-anchor="start" y="12.5" textLength="98.8294677734375" style="font-family: Arial, Helvetica Neue, Helvetica, sans-serif;">Sub Scenario  1</tspan></text></g></g><g width="193.5" height="345" transform="scale(1,1) translate(3500.5,1161.902)"><g fill="#545454" stroke="#545454" stroke-opacity="1" transform="scale(1,1) translate(0,0)"><path fill="none" stroke-width="1" stroke-dasharray="none" d="M0,172.5 L0,172.5 M0,172.5 L0,172.5 M0,172.5 L0,172.5 M0,172.5 L193.5,0 M0,172.5 L193.5,115 M0,172.5 L193.5,230 M0,172.5 L193.5,345"/><g><g stroke-dasharray="none"><path d="M-5,167.5L5,167.5L5,177.5L-5,177.5z" stroke-width="0" fill="none"/></g></g></g><g stroke-width="0" stroke-dasharray="none" fill="#FFFFFF" opacity="1" width="112.413" height="17.278" transform="scale(1,1) translate(40.544,77.611)"><rect width="112.413" height="17.278"/></g><g width="110.41258239746094" height="172.5" transform="scale(1,1) translate(41.544,78.611)"><text width="110.41258239746094" height="15.277776718139648" transform="scale(1,1) translate(0,0)" xml:space="preserve"><tspan xml:space="preserve" text-rendering="optimizeSpeed" font-size="13.88888888888889" font-weight="normal" font-style="normal" text-decoration="none" fill="#333333" opacity="1" x="0" text-anchor="start" y="12.5" textLength="110.41258239746094" style="font-family: Arial, Helvetica Neue, Helvetica, sans-serif;">Sub Scenario 2 /1</tspan></text></g><g stroke-width="0" stroke-dasharray="none" fill="#FFFFFF" opacity="1" width="112.413" height="17.278" transform="scale(1,1) translate(40.544,135.111)"><rect width="112.413" height="17.278"/></g><g width="110.41258239746094" height="57.5" transform="scale(1,1) translate(41.544,136.111)"><text width="110.41258239746094" height="15.277776718139648" transform="scale(1,1) translate(0,0)" xml:space="preserve"><tspan xml:space="preserve" text-rendering="optimizeSpeed" font-size="13.88888888888889" font-weight="normal" font-style="normal" text-decoration="none" fill="#333333" opacity="1" x="0" text-anchor="start" y="12.5" textLength="110.41258239746094" style="font-family: Arial, Helvetica Neue, Helvetica, sans-serif;">Sub Scenario 2 /2</tspan></text></g><g stroke-width="0" stroke-dasharray="none" fill="#FFFFFF" opacity="1" width="112.413" height="17.278" transform="scale(1,1) translate(40.544,192.611)"><rect width="112.413" height="17.278"/></g><g width="110.41258239746094" height="57.5" transform="scale(1,1) translate(41.544,193.611)"><text width="110.41258239746094" height="15.277776718139648" transform="scale(1,1) translate(0,0)" xml:space="preserve"><tspan xml:space="preserve" text-rendering="optimizeSpeed" font-size="13.88888888888889" font-weight="normal" font-style="normal" text-decoration="none" fill="#333333" opacity="1" x="0" text-anchor="start" y="12.5" textLength="110.41258239746094" style="font-family: Arial, Helvetica Neue, Helvetica, sans-serif;">Sub Scenario 2 /3</tspan></text></g><g stroke-width="0" stroke-dasharray="none" fill="#FFFFFF" opacity="1" width="112.413" height="17.278" transform="scale(1,1) translate(40.544,250.111)"><rect width="112.413" height="17.278"/></g><g width="110.41258239746094" height="172.5" transform="scale(1,1) translate(41.544,251.111)"><text width="110.41258239746094" height="15.277776718139648" transform="scale(1,1) translate(0,0)" xml:space="preserve"><tspan xml:space="preserve" text-rendering="optimizeSpeed" font-size="13.88888888888889" font-weight="normal" font-style="normal" text-decoration="none" fill="#333333" opacity="1" x="0" text-anchor="start" y="12.5" textLength="110.41258239746094" style="font-family: Arial, Helvetica Neue, Helvetica, sans-serif;">Sub Scenario 2 /4</tspan></text></g></g><g width="193.5" height="460" transform="scale(1,1) translate(3157,1334.402)"><g fill="#545454" stroke="#545454" stroke-opacity="1" transform="scale(1,1) translate(0,0)"><path fill="none" stroke-width="1" stroke-dasharray="none" d="M0,230 L0,230 M0,230 L0,230 M0,230 L0,230 M0,230 L193.5,0 M0,230 L193.5,460"/><g><g stroke-dasharray="none"><path d="M-5,225L5,225L5,235L-5,235z" stroke-width="0" fill="none"/></g></g></g><g stroke-width="0" stroke-dasharray="none" fill="#FFFFFF" opacity="1" width="112.413" height="17.278" transform="scale(1,1) translate(40.544,106.361)"><rect width="112.413" height="17.278"/></g><g width="110.41258239746094" height="230" transform="scale(1,1) translate(41.544,107.361)"><text width="110.41258239746094" height="15.277776718139648" transform="scale(1,1) translate(0,0)" xml:space="preserve"><tspan xml:space="preserve" text-rendering="optimizeSpeed" font-size="13.88888888888889" font-weight="normal" font-style="normal" text-decoration="none" fill="#333333" opacity="1" x="0" text-anchor="start" y="12.5" textLength="110.41258239746094" style="font-family: Arial, Helvetica Neue, Helvetica, sans-serif;">Sub Scenario 1 /1</tspan></text></g><g stroke-width="0" stroke-dasharray="none" fill="#FFFFFF" opacity="1" width="112.413" height="17.278" transform="scale(1,1) translate(40.544,336.361)"><rect width="112.413" height="17.278"/></g><g width="110.41258239746094" height="230" transform="scale(1,1) translate(41.544,337.361)"><text width="110.41258239746094" height="15.277776718139648" transform="scale(1,1) translate(0,0)" xml:space="preserve"><tspan xml:space="preserve" text-rendering="optimizeSpeed" font-size="13.88888888888889" font-weight="normal" font-style="normal" text-decoration="none" fill="#333333" opacity="1" x="0" text-anchor="start" y="12.5" textLength="110.41258239746094" style="font-family: Arial, Helvetica Neue, Helvetica, sans-serif;">Sub Scenario 1 /2</tspan></text></g></g><g width="340.348" height="75" transform="scale(1,1) translate(3694,1124.402)"><g stroke="#B3D7EE" stroke-opacity="1" stroke-width="1" stroke-dasharray="none" width="340.348" height="75" transform="scale(1,1) translate(0,0)" fill="#B3D7EE" fill-opacity="1"><rect width="340.348" height="75"/></g><g width="333.6814016606457" height="68.33333333333333" transform="scale(1,1) translate(3.333,3.333)"><text width="333.6814016606457" height="15.277776718139648" transform="scale(1,1) translate(0,26.52777830759684)" xml:space="preserve"><tspan xml:space="preserve" text-rendering="optimizeSpeed" font-size="13.88888888888889" font-weight="normal" font-style="normal" text-decoration="none" fill="#333333" opacity="1" x="3.548" text-anchor="start" y="12.5" textLength="326.58551025390625" style="font-family: Arial, Helvetica Neue, Helvetica, sans-serif;">Portfolio a_Sub Scenario 1 /1_Sub Scenario 2 /1.xlsx</tspan></text></g></g><g width="150" height="75" transform="scale(1,1) translate(3350.5,2217.366)"><g stroke="#B3D7EE" stroke-opacity="1" stroke-width="1" stroke-dasharray="none" width="150" height="75" transform="scale(1,1) translate(0,0)" fill="#B3D7EE" fill-opacity="1"><rect width="150" height="75"/></g><g width="143.33333333333331" height="68.33333333333333" transform="scale(1,1) translate(3.333,3.333)"><text width="143.33333333333331" height="15.277776718139648" transform="scale(1,1) translate(0,26.52777830759684)" xml:space="preserve"><tspan xml:space="preserve" text-rendering="optimizeSpeed" font-size="13.88888888888889" font-weight="normal" font-style="normal" text-decoration="none" fill="#333333" opacity="1" x="24.181" text-anchor="start" y="12.5" textLength="94.97068786621094" style="font-family: Arial, Helvetica Neue, Helvetica, sans-serif;">Sub Scenario 2</tspan></text></g></g><g width="193.5" height="345.927" transform="scale(1,1) translate(3500.5,2081.902)"><g fill="#545454" stroke="#545454" stroke-opacity="1" transform="scale(1,1) translate(0,0)"><path fill="none" stroke-width="1" stroke-dasharray="none" d="M0,172.964 L0,172.964 M0,172.964 L0,172.964 M0,172.964 L0,172.964 M0,172.964 L193.5,0 M0,172.964 L193.5,115 M0,172.964 L193.5,230.297 M0,172.964 L193.5,345.927"/><g><g stroke-dasharray="none"><path d="M-5,167.964L5,167.964L5,177.964L-5,177.964z" stroke-width="0" fill="none"/></g></g></g><g stroke-width="0" stroke-dasharray="none" fill="#FFFFFF" opacity="1" width="112.413" height="17.278" transform="scale(1,1) translate(40.544,77.843)"><rect width="112.413" height="17.278"/></g><g width="110.41258239746094" height="172.96373961497943" transform="scale(1,1) translate(41.544,78.843)"><text width="110.41258239746094" height="15.277776718139648" transform="scale(1,1) translate(0,0)" xml:space="preserve"><tspan xml:space="preserve" text-rendering="optimizeSpeed" font-size="13.88888888888889" font-weight="normal" font-style="normal" text-decoration="none" fill="#333333" opacity="1" x="0" text-anchor="start" y="12.5" textLength="110.41258239746094" style="font-family: Arial, Helvetica Neue, Helvetica, sans-serif;">Sub Scenario 2 /1</tspan></text></g><g stroke-width="0" stroke-dasharray="none" fill="#FFFFFF" opacity="1" width="112.413" height="17.278" transform="scale(1,1) translate(40.544,135.343)"><rect width="112.413" height="17.278"/></g><g width="110.41258239746094" height="57.96373961497943" transform="scale(1,1) translate(41.544,136.343)"><text width="110.41258239746094" height="15.277776718139648" transform="scale(1,1) translate(0,0)" xml:space="preserve"><tspan xml:space="preserve" text-rendering="optimizeSpeed" font-size="13.88888888888889" font-weight="normal" font-style="normal" text-decoration="none" fill="#333333" opacity="1" x="0" text-anchor="start" y="12.5" textLength="110.41258239746094" style="font-family: Arial, Helvetica Neue, Helvetica, sans-serif;">Sub Scenario 2 /2</tspan></text></g><g stroke-width="0" stroke-dasharray="none" fill="#FFFFFF" opacity="1" width="112.413" height="17.278" transform="scale(1,1) translate(40.544,192.992)"><rect width="112.413" height="17.278"/></g><g width="110.41258239746094" height="57.33333333333326" transform="scale(1,1) translate(41.544,193.992)"><text width="110.41258239746094" height="15.277776718139648" transform="scale(1,1) translate(0,0)" xml:space="preserve"><tspan xml:space="preserve" text-rendering="optimizeSpeed" font-size="13.88888888888889" font-weight="normal" font-style="normal" text-decoration="none" fill="#333333" opacity="1" x="0" text-anchor="start" y="12.5" textLength="110.41258239746094" style="font-family: Arial, Helvetica Neue, Helvetica, sans-serif;">Sub Scenario 2 /3</tspan></text></g><g stroke-width="0" stroke-dasharray="none" fill="#FFFFFF" opacity="1" width="112.413" height="17.278" transform="scale(1,1) translate(40.544,250.807)"><rect width="112.413" height="17.278"/></g><g width="110.41258239746094" height="172.96373961497943" transform="scale(1,1) translate(41.544,251.807)"><text width="110.41258239746094" height="15.277776718139648" transform="scale(1,1) translate(0,0)" xml:space="preserve"><tspan xml:space="preserve" text-rendering="optimizeSpeed" font-size="13.88888888888889" font-weight="normal" font-style="normal" text-decoration="none" fill="#333333" opacity="1" x="0" text-anchor="start" y="12.5" textLength="110.41258239746094" style="font-family: Arial, Helvetica Neue, Helvetica, sans-serif;">Sub Scenario 2 /4</tspan></text></g></g><g width="150" height="75" transform="scale(1,1) translate(3350.5,1296.902)"><g stroke="#B3D7EE" stroke-opacity="1" stroke-width="1" stroke-dasharray="none" width="150" height="75" transform="scale(1,1) translate(0,0)" fill="#B3D7EE" fill-opacity="1"><rect width="150" height="75"/></g><g width="143.33333333333331" height="68.33333333333333" transform="scale(1,1) translate(3.333,3.333)"><text width="143.33333333333331" height="15.277776718139648" transform="scale(1,1) translate(0,26.52777830759684)" xml:space="preserve"><tspan xml:space="preserve" text-rendering="optimizeSpeed" font-size="13.88888888888889" font-weight="normal" font-style="normal" text-decoration="none" fill="#333333" opacity="1" x="24.181" text-anchor="start" y="12.5" textLength="94.97068786621094" style="font-family: Arial, Helvetica Neue, Helvetica, sans-serif;">Sub Scenario 2</tspan></text></g></g><g width="150" height="75" transform="scale(1,1) translate(3350.5,1756.902)"><g stroke="#B3D7EE" stroke-opacity="1" stroke-width="1" stroke-dasharray="none" width="150" height="75" transform="scale(1,1) translate(0,0)" fill="#B3D7EE" fill-opacity="1"><rect width="150" height="75"/></g><g width="143.33333333333331" height="68.33333333333333" transform="scale(1,1) translate(3.333,3.333)"><text width="143.33333333333331" height="15.277776718139648" transform="scale(1,1) translate(0,26.52777830759684)" xml:space="preserve"><tspan xml:space="preserve" text-rendering="optimizeSpeed" font-size="13.88888888888889" font-weight="normal" font-style="normal" text-decoration="none" fill="#333333" opacity="1" x="24.181" text-anchor="start" y="12.5" textLength="94.97068786621094" style="font-family: Arial, Helvetica Neue, Helvetica, sans-serif;">Sub Scenario 2</tspan></text></g></g><g width="193" height="0" transform="scale(1,1) translate(4043.648,2543.163)"><g fill="#545454" stroke="#545454" stroke-opacity="1" transform="scale(1,1) translate(0,0)"><path fill="none" stroke-width="1" stroke-dasharray="none" d="M0,0"/></g></g><g width="193.5" height="345" transform="scale(1,1) translate(3500.5,1621.902)"><g fill="#545454" stroke="#545454" stroke-opacity="1" transform="scale(1,1) translate(0,0)"><path fill="none" stroke-width="1" stroke-dasharray="none" d="M0,172.5 L0,172.5 M0,172.5 L0,172.5 M0,172.5 L0,172.5 M0,172.5 L193.5,0 M0,172.5 L193.5,115 M0,172.5 L193.5,230 M0,172.5 L193.5,345"/><g><g stroke-dasharray="none"><path d="M-5,167.5L5,167.5L5,177.5L-5,177.5z" stroke-width="0" fill="none"/></g></g></g><g stroke-width="0" stroke-dasharray="none" fill="#FFFFFF" opacity="1" width="112.413" height="17.278" transform="scale(1,1) translate(40.544,77.611)"><rect width="112.413" height="17.278"/></g><g width="110.41258239746094" height="172.5" transform="scale(1,1) translate(41.544,78.611)"><text width="110.41258239746094" height="15.277776718139648" transform="scale(1,1) translate(0,0)" xml:space="preserve"><tspan xml:space="preserve" text-rendering="optimizeSpeed" font-size="13.88888888888889" font-weight="normal" font-style="normal" text-decoration="none" fill="#333333" opacity="1" x="0" text-anchor="start" y="12.5" textLength="110.41258239746094" style="font-family: Arial, Helvetica Neue, Helvetica, sans-serif;">Sub Scenario 2 /1</tspan></text></g><g stroke-width="0" stroke-dasharray="none" fill="#FFFFFF" opacity="1" width="112.413" height="17.278" transform="scale(1,1) translate(40.544,135.111)"><rect width="112.413" height="17.278"/></g><g width="110.41258239746094" height="57.5" transform="scale(1,1) translate(41.544,136.111)"><text width="110.41258239746094" height="15.277776718139648" transform="scale(1,1) translate(0,0)" xml:space="preserve"><tspan xml:space="preserve" text-rendering="optimizeSpeed" font-size="13.88888888888889" font-weight="normal" font-style="normal" text-decoration="none" fill="#333333" opacity="1" x="0" text-anchor="start" y="12.5" textLength="110.41258239746094" style="font-family: Arial, Helvetica Neue, Helvetica, sans-serif;">Sub Scenario 2 /2</tspan></text></g><g stroke-width="0" stroke-dasharray="none" fill="#FFFFFF" opacity="1" width="112.413" height="17.278" transform="scale(1,1) translate(40.544,192.611)"><rect width="112.413" height="17.278"/></g><g width="110.41258239746094" height="57.5" transform="scale(1,1) translate(41.544,193.611)"><text width="110.41258239746094" height="15.277776718139648" transform="scale(1,1) translate(0,0)" xml:space="preserve"><tspan xml:space="preserve" text-rendering="optimizeSpeed" font-size="13.88888888888889" font-weight="normal" font-style="normal" text-decoration="none" fill="#333333" opacity="1" x="0" text-anchor="start" y="12.5" textLength="110.41258239746094" style="font-family: Arial, Helvetica Neue, Helvetica, sans-serif;">Sub Scenario 2 /3</tspan></text></g><g stroke-width="0" stroke-dasharray="none" fill="#FFFFFF" opacity="1" width="112.413" height="17.278" transform="scale(1,1) translate(40.544,250.111)"><rect width="112.413" height="17.278"/></g><g width="110.41258239746094" height="172.5" transform="scale(1,1) translate(41.544,251.111)"><text width="110.41258239746094" height="15.277776718139648" transform="scale(1,1) translate(0,0)" xml:space="preserve"><tspan xml:space="preserve" text-rendering="optimizeSpeed" font-size="13.88888888888889" font-weight="normal" font-style="normal" text-decoration="none" fill="#333333" opacity="1" x="0" text-anchor="start" y="12.5" textLength="110.41258239746094" style="font-family: Arial, Helvetica Neue, Helvetica, sans-serif;">Sub Scenario 2 /4</tspan></text></g></g><g width="150" height="75" transform="scale(1,1) translate(3350.5,2678.163)"><g stroke="#B3D7EE" stroke-opacity="1" stroke-width="1" stroke-dasharray="none" width="150" height="75" transform="scale(1,1) translate(0,0)" fill="#B3D7EE" fill-opacity="1"><rect width="150" height="75"/></g><g width="143.33333333333331" height="68.33333333333333" transform="scale(1,1) translate(3.333,3.333)"><text width="143.33333333333331" height="15.277776718139648" transform="scale(1,1) translate(0,26.52777830759684)" xml:space="preserve"><tspan xml:space="preserve" text-rendering="optimizeSpeed" font-size="13.88888888888889" font-weight="normal" font-style="normal" text-decoration="none" fill="#333333" opacity="1" x="24.181" text-anchor="start" y="12.5" textLength="94.97068786621094" style="font-family: Arial, Helvetica Neue, Helvetica, sans-serif;">Sub Scenario 2</tspan></text></g></g><g width="193.5" height="345" transform="scale(1,1) translate(3500.5,2543.163)"><g fill="#545454" stroke="#545454" stroke-opacity="1" transform="scale(1,1) translate(0,0)"><path fill="none" stroke-width="1" stroke-dasharray="none" d="M0,172.5 L0,172.5 M0,172.5 L0,172.5 M0,172.5 L0,172.5 M0,172.5 L193.5,0 M0,172.5 L193.5,115 M0,172.5 L193.5,230 M0,172.5 L193.5,345"/><g><g stroke-dasharray="none"><path d="M-5,167.5L5,167.5L5,177.5L-5,177.5z" stroke-width="0" fill="none"/></g></g></g><g stroke-width="0" stroke-dasharray="none" fill="#FFFFFF" opacity="1" width="112.413" height="17.278" transform="scale(1,1) translate(40.544,77.611)"><rect width="112.413" height="17.278"/></g><g width="110.41258239746094" height="172.5" transform="scale(1,1) translate(41.544,78.611)"><text width="110.41258239746094" height="15.277776718139648" transform="scale(1,1) translate(0,0)" xml:space="preserve"><tspan xml:space="preserve" text-rendering="optimizeSpeed" font-size="13.88888888888889" font-weight="normal" font-style="normal" text-decoration="none" fill="#333333" opacity="1" x="0" text-anchor="start" y="12.5" textLength="110.41258239746094" style="font-family: Arial, Helvetica Neue, Helvetica, sans-serif;">Sub Scenario 2 /1</tspan></text></g><g stroke-width="0" stroke-dasharray="none" fill="#FFFFFF" opacity="1" width="112.413" height="17.278" transform="scale(1,1) translate(40.544,135.111)"><rect width="112.413" height="17.278"/></g><g width="110.41258239746094" height="57.5" transform="scale(1,1) translate(41.544,136.111)"><text width="110.41258239746094" height="15.277776718139648" transform="scale(1,1) translate(0,0)" xml:space="preserve"><tspan xml:space="preserve" text-rendering="optimizeSpeed" font-size="13.88888888888889" font-weight="normal" font-style="normal" text-decoration="none" fill="#333333" opacity="1" x="0" text-anchor="start" y="12.5" textLength="110.41258239746094" style="font-family: Arial, Helvetica Neue, Helvetica, sans-serif;">Sub Scenario 2 /2</tspan></text></g><g stroke-width="0" stroke-dasharray="none" fill="#FFFFFF" opacity="1" width="112.413" height="17.278" transform="scale(1,1) translate(40.544,192.611)"><rect width="112.413" height="17.278"/></g><g width="110.41258239746094" height="57.5" transform="scale(1,1) translate(41.544,193.611)"><text width="110.41258239746094" height="15.277776718139648" transform="scale(1,1) translate(0,0)" xml:space="preserve"><tspan xml:space="preserve" text-rendering="optimizeSpeed" font-size="13.88888888888889" font-weight="normal" font-style="normal" text-decoration="none" fill="#333333" opacity="1" x="0" text-anchor="start" y="12.5" textLength="110.41258239746094" style="font-family: Arial, Helvetica Neue, Helvetica, sans-serif;">Sub Scenario 2 /3</tspan></text></g><g stroke-width="0" stroke-dasharray="none" fill="#FFFFFF" opacity="1" width="112.413" height="17.278" transform="scale(1,1) translate(40.544,250.111)"><rect width="112.413" height="17.278"/></g><g width="110.41258239746094" height="172.5" transform="scale(1,1) translate(41.544,251.111)"><text width="110.41258239746094" height="15.277776718139648" transform="scale(1,1) translate(0,0)" xml:space="preserve"><tspan xml:space="preserve" text-rendering="optimizeSpeed" font-size="13.88888888888889" font-weight="normal" font-style="normal" text-decoration="none" fill="#333333" opacity="1" x="0" text-anchor="start" y="12.5" textLength="110.41258239746094" style="font-family: Arial, Helvetica Neue, Helvetica, sans-serif;">Sub Scenario 2 /4</tspan></text></g></g><g width="193" height="0" transform="scale(1,1) translate(4043.648,2773.163)"><g fill="#545454" stroke="#545454" stroke-opacity="1" transform="scale(1,1) translate(0,0)"><path fill="none" stroke-width="1" stroke-dasharray="none" d="M0,0"/></g></g><g width="337.248" height="75" transform="scale(1,1) translate(3694,1239.402)"><g stroke="#B3D7EE" stroke-opacity="1" stroke-width="1" stroke-dasharray="none" width="337.248" height="75" transform="scale(1,1) translate(0,0)" fill="#B3D7EE" fill-opacity="1"><rect width="337.248" height="75"/></g><g width="330.58139636866855" height="68.33333333333333" transform="scale(1,1) translate(3.333,3.333)"><text width="330.58139636866855" height="15.277776718139648" transform="scale(1,1) translate(0,26.52777830759684)" xml:space="preserve"><tspan xml:space="preserve" text-rendering="optimizeSpeed" font-size="13.88888888888889" font-weight="normal" font-style="normal" text-decoration="none" fill="#333333" opacity="1" x="141.755" text-anchor="start" y="12.5" textLength="47.07166290283203" style="font-family: Arial, Helvetica Neue, Helvetica, sans-serif;">.... .xlsx</tspan></text></g></g><g width="193" height="0" transform="scale(1,1) translate(4031.248,1736.902)"><g fill="#545454" stroke="#545454" stroke-opacity="1" transform="scale(1,1) translate(0,0)"><path fill="none" stroke-width="1" stroke-dasharray="none" d="M0,0"/></g></g><g width="193" height="0" transform="scale(1,1) translate(4031.248,1391.902)"><g fill="#545454" stroke="#545454" stroke-opacity="1" transform="scale(1,1) translate(0,0)"><path fill="none" stroke-width="1" stroke-dasharray="none" d="M0,0"/></g></g><g width="193" height="0" transform="scale(1,1) translate(4034.348,1506.902)"><g fill="#545454" stroke="#545454" stroke-opacity="1" transform="scale(1,1) translate(0,0)"><path fill="none" stroke-width="1" stroke-dasharray="none" d="M0,0"/></g></g><g width="193" height="0" transform="scale(1,1) translate(4031.248,1851.902)"><g fill="#545454" stroke="#545454" stroke-opacity="1" transform="scale(1,1) translate(0,0)"><path fill="none" stroke-width="1" stroke-dasharray="none" d="M0,0"/></g></g><g width="193" height="0" transform="scale(1,1) translate(4031.248,1966.902)"><g fill="#545454" stroke="#545454" stroke-opacity="1" transform="scale(1,1) translate(0,0)"><path fill="none" stroke-width="1" stroke-dasharray="none" d="M0,0"/></g></g><g width="193" height="0" transform="scale(1,1) translate(4034.348,2196.902)"><g fill="#545454" stroke="#545454" stroke-opacity="1" transform="scale(1,1) translate(0,0)"><path fill="none" stroke-width="1" stroke-dasharray="none" d="M0,0"/></g></g><g width="193" height="0" transform="scale(1,1) translate(4034.348,2312.199)"><g fill="#545454" stroke="#545454" stroke-opacity="1" transform="scale(1,1) translate(0,0)"><path fill="none" stroke-width="1" stroke-dasharray="none" d="M0,0"/></g></g><g width="193" height="0" transform="scale(1,1) translate(4040.548,2427.83)"><g fill="#545454" stroke="#545454" stroke-opacity="1" transform="scale(1,1) translate(0,0)"><path fill="none" stroke-width="1" stroke-dasharray="none" d="M0,0"/></g></g><g width="349.648" height="75" transform="scale(1,1) translate(3694,2505.663)"><g stroke="#B3D7EE" stroke-opacity="1" stroke-width="1" stroke-dasharray="none" width="349.648" height="75" transform="scale(1,1) translate(0,0)" fill="#B3D7EE" fill-opacity="1"><rect width="349.648" height="75"/></g><g width="342.9814216237267" height="68.33333333333333" transform="scale(1,1) translate(3.333,3.333)"><text width="342.9814216237267" height="15.277776718139648" transform="scale(1,1) translate(0,26.52777830759684)" xml:space="preserve"><tspan xml:space="preserve" text-rendering="optimizeSpeed" font-size="13.88888888888889" font-weight="normal" font-style="normal" text-decoration="none" fill="#333333" opacity="1" x="147.955" text-anchor="start" y="12.5" textLength="47.07166290283203" style="font-family: Arial, Helvetica Neue, Helvetica, sans-serif;">.... .xlsx</tspan></text></g></g><g width="193" height="0" transform="scale(1,1) translate(4043.648,2658.163)"><g fill="#545454" stroke="#545454" stroke-opacity="1" transform="scale(1,1) translate(0,0)"><path fill="none" stroke-width="1" stroke-dasharray="none" d="M0,0"/></g></g><g width="193" height="0" transform="scale(1,1) translate(4052.948,2888.163)"><g fill="#545454" stroke="#545454" stroke-opacity="1" transform="scale(1,1) translate(0,0)"><path fill="none" stroke-width="1" stroke-dasharray="none" d="M0,0"/></g></g><g width="349.648" height="75" transform="scale(1,1) translate(3694,2735.663)"><g stroke="#B3D7EE" stroke-opacity="1" stroke-width="1" stroke-dasharray="none" width="349.648" height="75" transform="scale(1,1) translate(0,0)" fill="#B3D7EE" fill-opacity="1"><rect width="349.648" height="75"/></g><g width="342.98142061115215" height="68.33333333333333" transform="scale(1,1) translate(3.333,3.333)"><text width="342.98142061115215" height="15.277776718139648" transform="scale(1,1) translate(0,26.52777830759684)" xml:space="preserve"><tspan xml:space="preserve" text-rendering="optimizeSpeed" font-size="13.88888888888889" font-weight="normal" font-style="normal" text-decoration="none" fill="#333333" opacity="1" x="147.955" text-anchor="start" y="12.5" textLength="47.07166290283203" style="font-family: Arial, Helvetica Neue, Helvetica, sans-serif;">.... .xlsx</tspan></text></g></g><g width="337.248" height="75" transform="scale(1,1) translate(3694,1354.402)"><g stroke="#B3D7EE" stroke-opacity="1" stroke-width="1" stroke-dasharray="none" width="337.248" height="75" transform="scale(1,1) translate(0,0)" fill="#B3D7EE" fill-opacity="1"><rect width="337.248" height="75"/></g><g width="330.5813951326525" height="68.33333333333333" transform="scale(1,1) translate(3.333,3.333)"><text width="330.5813951326525" height="15.277776718139648" transform="scale(1,1) translate(0,26.52777830759684)" xml:space="preserve"><tspan xml:space="preserve" text-rendering="optimizeSpeed" font-size="13.88888888888889" font-weight="normal" font-style="normal" text-decoration="none" fill="#333333" opacity="1" x="141.755" text-anchor="start" y="12.5" textLength="47.07166290283203" style="font-family: Arial, Helvetica Neue, Helvetica, sans-serif;">.... .xlsx</tspan></text></g></g><g width="337.248" height="75" transform="scale(1,1) translate(3694,1699.402)"><g stroke="#B3D7EE" stroke-opacity="1" stroke-width="1" stroke-dasharray="none" width="337.248" height="75" transform="scale(1,1) translate(0,0)" fill="#B3D7EE" fill-opacity="1"><rect width="337.248" height="75"/></g><g width="330.58139489516026" height="68.33333333333333" transform="scale(1,1) translate(3.333,3.333)"><text width="330.58139489516026" height="15.277776718139648" transform="scale(1,1) translate(0,26.52777830759684)" xml:space="preserve"><tspan xml:space="preserve" text-rendering="optimizeSpeed" font-size="13.88888888888889" font-weight="normal" font-style="normal" text-decoration="none" fill="#333333" opacity="1" x="1.998" text-anchor="start" y="12.5" textLength="326.58551025390625" style="font-family: Arial, Helvetica Neue, Helvetica, sans-serif;">Portfolio a_Sub Scenario 1 /2_Sub Scenario 2 /2.xlsx</tspan></text></g></g><g width="340.348" height="75.594" transform="scale(1,1) translate(3694,2274.402)"><g stroke="#B3D7EE" stroke-opacity="1" stroke-width="1" stroke-dasharray="none" width="340.348" height="75.594" transform="scale(1,1) translate(0,0)" fill="#B3D7EE" fill-opacity="1"><rect width="340.348" height="75.594"/></g><g width="333.6814032863343" height="68.9274792299587" transform="scale(1,1) translate(3.333,3.333)"><text width="333.6814032863343" height="15.277776718139648" transform="scale(1,1) translate(0,26.82485125590953)" xml:space="preserve"><tspan xml:space="preserve" text-rendering="optimizeSpeed" font-size="13.88888888888889" font-weight="normal" font-style="normal" text-decoration="none" fill="#333333" opacity="1" x="3.548" text-anchor="start" y="12.5" textLength="326.58551025390625" style="font-family: Arial, Helvetica Neue, Helvetica, sans-serif;">Portfolio b_Sub Scenario 1 /1_Sub Scenario 2 /3.xlsx</tspan></text></g></g><g width="358.948" height="75" transform="scale(1,1) translate(3694,2850.663)"><g stroke="#B3D7EE" stroke-opacity="1" stroke-width="1" stroke-dasharray="none" width="358.948" height="75" transform="scale(1,1) translate(0,0)" fill="#B3D7EE" fill-opacity="1"><rect width="358.948" height="75"/></g><g width="352.2814391899081" height="68.33333333333333" transform="scale(1,1) translate(3.333,3.333)"><text width="352.2814391899081" height="15.277776718139648" transform="scale(1,1) translate(0,26.52777830759684)" xml:space="preserve"><tspan xml:space="preserve" text-rendering="optimizeSpeed" font-size="13.88888888888889" font-weight="normal" font-style="normal" text-decoration="none" fill="#333333" opacity="1" x="12.848" text-anchor="start" y="12.5" textLength="326.58551025390625" style="font-family: Arial, Helvetica Neue, Helvetica, sans-serif;">Portfolio b_Sub Scenario 1 /2_Sub Scenario 2 /4.xlsx</tspan></text></g></g><g width="340.348" height="75" transform="scale(1,1) translate(3694,1469.402)"><g stroke="#B3D7EE" stroke-opacity="1" stroke-width="1" stroke-dasharray="none" width="340.348" height="75" transform="scale(1,1) translate(0,0)" fill="#B3D7EE" fill-opacity="1"><rect width="340.348" height="75"/></g><g width="333.6814014370655" height="68.33333333333333" transform="scale(1,1) translate(3.333,3.333)"><text width="333.6814014370655" height="15.277776718139648" transform="scale(1,1) translate(0,26.52777830759684)" xml:space="preserve"><tspan xml:space="preserve" text-rendering="optimizeSpeed" font-size="13.88888888888889" font-weight="normal" font-style="normal" text-decoration="none" fill="#333333" opacity="1" x="143.305" text-anchor="start" y="12.5" textLength="47.07166290283203" style="font-family: Arial, Helvetica Neue, Helvetica, sans-serif;">.... .xlsx</tspan></text></g></g><g width="340.348" height="75" transform="scale(1,1) translate(3694,1584.402)"><g stroke="#B3D7EE" stroke-opacity="1" stroke-width="1" stroke-dasharray="none" width="340.348" height="75" transform="scale(1,1) translate(0,0)" fill="#B3D7EE" fill-opacity="1"><rect width="340.348" height="75"/></g><g width="333.6814019085385" height="68.33333333333333" transform="scale(1,1) translate(3.333,3.333)"><text width="333.6814019085385" height="15.277776718139648" transform="scale(1,1) translate(0,26.52777830759684)" xml:space="preserve"><tspan xml:space="preserve" text-rendering="optimizeSpeed" font-size="13.88888888888889" font-weight="normal" font-style="normal" text-decoration="none" fill="#333333" opacity="1" x="143.305" text-anchor="start" y="12.5" textLength="47.07166290283203" style="font-family: Arial, Helvetica Neue, Helvetica, sans-serif;">.... .xlsx</tspan></text></g></g><g width="337.248" height="75" transform="scale(1,1) translate(3694,1814.402)"><g stroke="#B3D7EE" stroke-opacity="1" stroke-width="1" stroke-dasharray="none" width="337.248" height="75" transform="scale(1,1) translate(0,0)" fill="#B3D7EE" fill-opacity="1"><rect width="337.248" height="75"/></g><g width="330.581395385754" height="68.33333333333333" transform="scale(1,1) translate(3.333,3.333)"><text width="330.581395385754" height="15.277776718139648" transform="scale(1,1) translate(0,26.52777830759684)" xml:space="preserve"><tspan xml:space="preserve" text-rendering="optimizeSpeed" font-size="13.88888888888889" font-weight="normal" font-style="normal" text-decoration="none" fill="#333333" opacity="1" x="141.755" text-anchor="start" y="12.5" textLength="47.07166290283203" style="font-family: Arial, Helvetica Neue, Helvetica, sans-serif;">.... .xlsx</tspan></text></g></g><g width="337.248" height="75" transform="scale(1,1) translate(3694,1929.402)"><g stroke="#B3D7EE" stroke-opacity="1" stroke-width="1" stroke-dasharray="none" width="337.248" height="75" transform="scale(1,1) translate(0,0)" fill="#B3D7EE" fill-opacity="1"><rect width="337.248" height="75"/></g><g width="330.5813960177973" height="68.33333333333333" transform="scale(1,1) translate(3.333,3.333)"><text width="330.5813960177973" height="15.277776718139648" transform="scale(1,1) translate(0,26.52777830759684)" xml:space="preserve"><tspan xml:space="preserve" text-rendering="optimizeSpeed" font-size="13.88888888888889" font-weight="normal" font-style="normal" text-decoration="none" fill="#333333" opacity="1" x="141.755" text-anchor="start" y="12.5" textLength="47.07166290283203" style="font-family: Arial, Helvetica Neue, Helvetica, sans-serif;">.... .xlsx</tspan></text></g></g><g width="337.248" height="75" transform="scale(1,1) translate(3694,2044.402)"><g stroke="#B3D7EE" stroke-opacity="1" stroke-width="1" stroke-dasharray="none" width="337.248" height="75" transform="scale(1,1) translate(0,0)" fill="#B3D7EE" fill-opacity="1"><rect width="337.248" height="75"/></g><g width="330.58139562232583" height="68.33333333333333" transform="scale(1,1) translate(3.333,3.333)"><text width="330.58139562232583" height="15.277776718139648" transform="scale(1,1) translate(0,26.52777830759684)" xml:space="preserve"><tspan xml:space="preserve" text-rendering="optimizeSpeed" font-size="13.88888888888889" font-weight="normal" font-style="normal" text-decoration="none" fill="#333333" opacity="1" x="141.755" text-anchor="start" y="12.5" textLength="47.07166290283203" style="font-family: Arial, Helvetica Neue, Helvetica, sans-serif;">.... .xlsx</tspan></text></g></g><g width="340.348" height="75" transform="scale(1,1) translate(3694,2159.402)"><g stroke="#B3D7EE" stroke-opacity="1" stroke-width="1" stroke-dasharray="none" width="340.348" height="75" transform="scale(1,1) translate(0,0)" fill="#B3D7EE" fill-opacity="1"><rect width="340.348" height="75"/></g><g width="333.6814021068379" height="68.33333333333333" transform="scale(1,1) translate(3.333,3.333)"><text width="333.6814021068379" height="15.277776718139648" transform="scale(1,1) translate(0,26.52777830759684)" xml:space="preserve"><tspan xml:space="preserve" text-rendering="optimizeSpeed" font-size="13.88888888888889" font-weight="normal" font-style="normal" text-decoration="none" fill="#333333" opacity="1" x="143.305" text-anchor="start" y="12.5" textLength="47.07166290283203" style="font-family: Arial, Helvetica Neue, Helvetica, sans-serif;">.... .xlsx</tspan></text></g></g><g width="346.548" height="75.667" transform="scale(1,1) translate(3694,2389.996)"><g stroke="#B3D7EE" stroke-opacity="1" stroke-width="1" stroke-dasharray="none" width="346.548" height="75.667" transform="scale(1,1) translate(0,0)" fill="#B3D7EE" fill-opacity="1"><rect width="346.548" height="75.667"/></g><g width="339.881414563575" height="68.99999999999999" transform="scale(1,1) translate(3.333,3.333)"><text width="339.881414563575" height="15.277776718139648" transform="scale(1,1) translate(0,26.86111164093017)" xml:space="preserve"><tspan xml:space="preserve" text-rendering="optimizeSpeed" font-size="13.88888888888889" font-weight="normal" font-style="normal" text-decoration="none" fill="#333333" opacity="1" x="146.405" text-anchor="start" y="12.5" textLength="47.07166290283203" style="font-family: Arial, Helvetica Neue, Helvetica, sans-serif;">.... .xlsx</tspan></text></g></g><g width="349.648" height="75" transform="scale(1,1) translate(3694,2620.663)"><g stroke="#B3D7EE" stroke-opacity="1" stroke-width="1" stroke-dasharray="none" width="349.648" height="75" transform="scale(1,1) translate(0,0)" fill="#B3D7EE" fill-opacity="1"><rect width="349.648" height="75"/></g><g width="342.98142113835667" height="68.33333333333333" transform="scale(1,1) translate(3.333,3.333)"><text width="342.98142113835667" height="15.277776718139648" transform="scale(1,1) translate(0,26.52777830759684)" xml:space="preserve"><tspan xml:space="preserve" text-rendering="optimizeSpeed" font-size="13.88888888888889" font-weight="normal" font-style="normal" text-decoration="none" fill="#333333" opacity="1" x="147.955" text-anchor="start" y="12.5" textLength="47.07166290283203" style="font-family: Arial, Helvetica Neue, Helvetica, sans-serif;">.... .xlsx</tspan></text></g></g></g></svg>