<?xml version="1.0" standalone="no"?><!DOCTYPE svg PUBLIC "-//W3C//DTD SVG 1.1//EN" "http://www.w3.org/Graphics/SVG/1.1/DTD/svg11.dtd"><svg xmlns="http://www.w3.org/2000/svg" version="1.1" width="1648.988" height="1826.261" xmlns:xlink="http://www.w3.org/1999/xlink" xlink="http://www.w3.org/1999/xlink" style="position:relative;overflow:hidden;" viewBox="2651 1111.902 1648.988 1826.261"><defs/><g><g width="150" height="75" transform="scale(1,1) translate(2663.5,1987.333)"><g stroke="#B3D7EE" stroke-opacity="1" stroke-width="1" stroke-dasharray="none" width="150" height="75" transform="scale(1,1) translate(0,0)" fill="#B3D7EE" fill-opacity="1"><rect width="150" height="75"/></g><g width="143.33333333333331" height="68.33333333333333" transform="scale(1,1) translate(3.333,3.333)"><text width="143.33333333333331" height="15.277776718139648" transform="scale(1,1) translate(0,26.52777830759684)" xml:space="preserve"><tspan xml:space="preserve" text-rendering="optimizeSpeed" font-size="13.88888888888889" font-weight="normal" font-style="normal" text-decoration="none" fill="#333333" opacity="1" x="42.329" text-anchor="start" y="12.5" textLength="54.816349029541016" style="font-family: Arial, Helvetica Neue, Helvetica, sans-serif;">Scenario</tspan></text></g></g><g width="193.5" height="920.862" transform="scale(1,1) translate(2813.5,1564.402)"><g fill="#545454" stroke="#545454" stroke-opacity="1" transform="scale(1,1) translate(0,0)"><path fill="none" stroke-width="1" stroke-dasharray="none" d="M0,460.431 L0,460.431 M0,460.431 L0,460.431 M0,460.431 L0,460.431 M0,460.431 L193.5,0 M0,460.431 L193.5,920.862"/><g><g stroke-dasharray="none"><path d="M-3,457.431L3,457.431L3,463.431L-3,463.431z" stroke-width="0" fill="none"/></g></g></g><g stroke-width="0" stroke-dasharray="none" fill="#FFFFFF" opacity="1" width="64.534" height="17.278" transform="scale(1,1) translate(64.483,221.577)"><rect width="64.534" height="17.278"/></g><g width="62.53390884399414" height="460.43113804456783" transform="scale(1,1) translate(65.483,222.577)"><text width="62.53390884399414" height="15.277776718139648" transform="scale(1,1) translate(0,0)" xml:space="preserve"><tspan xml:space="preserve" text-rendering="optimizeSpeed" font-size="13.88888888888889" font-weight="normal" font-style="normal" text-decoration="none" fill="#333333" opacity="1" x="0" text-anchor="start" y="12.5" textLength="62.53390884399414" style="font-family: Arial, Helvetica Neue, Helvetica, sans-serif;">Portfolio a</tspan></text></g><g stroke-width="0" stroke-dasharray="none" fill="#FFFFFF" opacity="1" width="64.534" height="17.278" transform="scale(1,1) translate(64.483,682.008)"><rect width="64.534" height="17.278"/></g><g width="62.53390884399414" height="460.43113804456783" transform="scale(1,1) translate(65.483,683.008)"><text width="62.53390884399414" height="15.277776718139648" transform="scale(1,1) translate(0,0)" xml:space="preserve"><tspan xml:space="preserve" text-rendering="optimizeSpeed" font-size="13.88888888888889" font-weight="normal" font-style="normal" text-decoration="none" fill="#333333" opacity="1" x="0" text-anchor="start" y="12.5" textLength="62.53390884399414" style="font-family: Arial, Helvetica Neue, Helvetica, sans-serif;">Portfolio b</tspan></text></g></g><g width="150" height="75" transform="scale(1,1) translate(3007,2447.764)"><g stroke="#B3D7EE" stroke-opacity="1" stroke-width="1" stroke-dasharray="none" width="150" height="75" transform="scale(1,1) translate(0,0)" fill="#B3D7EE" fill-opacity="1"><rect width="150" height="75"/></g><g width="143.33333333333331" height="68.33333333333333" transform="scale(1,1) translate(3.333,3.333)"><text width="143.33333333333331" height="15.277776718139648" transform="scale(1,1) translate(0,26.52777830759684)" xml:space="preserve"><tspan xml:space="preserve" text-rendering="optimizeSpeed" font-size="13.88888888888889" font-weight="normal" font-style="normal" text-decoration="none" fill="#333333" opacity="1" x="24.181" text-anchor="start" y="12.5" textLength="94.97068786621094" style="font-family: Arial, Helvetica Neue, Helvetica, sans-serif;">Sub Scenario 1</tspan></text></g></g><g width="193.5" height="460.797" transform="scale(1,1) translate(3157,2254.866)"><g fill="#545454" stroke="#545454" stroke-opacity="1" transform="scale(1,1) translate(0,0)"><path fill="none" stroke-width="1" stroke-dasharray="none" d="M0,230.399 L0,230.399 M0,230.399 L0,230.399 M0,230.399 L0,230.399 M0,230.399 L193.5,0 M0,230.399 L193.5,460.797"/><g><g stroke-dasharray="none"><path d="M-5,225.399L5,225.399L5,235.399L-5,235.399z" stroke-width="0" fill="none"/></g></g></g><g stroke-width="0" stroke-dasharray="none" fill="#FFFFFF" opacity="1" width="98.483" height="17.278" transform="scale(1,1) translate(47.508,106.56)"><rect width="98.483" height="17.278"/></g><g width="96.4830093383789" height="230.39853647415623" transform="scale(1,1) translate(48.508,107.56)"><text width="96.4830093383789" height="15.277776718139648" transform="scale(1,1) translate(0,0)" xml:space="preserve"><tspan xml:space="preserve" text-rendering="optimizeSpeed" font-size="13.88888888888889" font-weight="normal" font-style="normal" text-decoration="none" fill="#333333" opacity="1" x="0" text-anchor="start" y="12.5" textLength="96.4830093383789" style="font-family: Arial, Helvetica Neue, Helvetica, sans-serif;">CO2 Price High</tspan></text></g><g stroke-width="0" stroke-dasharray="none" fill="#FFFFFF" opacity="1" width="94.631" height="17.278" transform="scale(1,1) translate(49.434,336.959)"><rect width="94.631" height="17.278"/></g><g width="92.63101196289062" height="230.39853647415623" transform="scale(1,1) translate(50.434,337.959)"><text width="92.63101196289062" height="15.277776718139648" transform="scale(1,1) translate(0,0)" xml:space="preserve"><tspan xml:space="preserve" text-rendering="optimizeSpeed" font-size="13.88888888888889" font-weight="normal" font-style="normal" text-decoration="none" fill="#333333" opacity="1" x="0" text-anchor="start" y="12.5" textLength="92.63101196289062" style="font-family: Arial, Helvetica Neue, Helvetica, sans-serif;">CO2 Price Low</tspan></text></g></g><g width="150" height="75" transform="scale(1,1) translate(3007,1526.902)"><g stroke="#B3D7EE" stroke-opacity="1" stroke-width="1" stroke-dasharray="none" width="150" height="75" transform="scale(1,1) translate(0,0)" fill="#B3D7EE" fill-opacity="1"><rect width="150" height="75"/></g><g width="143.33333333333331" height="68.33333333333333" transform="scale(1,1) translate(3.333,3.333)"><text width="143.33333333333331" height="15.277776718139648" transform="scale(1,1) translate(0,26.52777830759684)" xml:space="preserve"><tspan xml:space="preserve" text-rendering="optimizeSpeed" font-size="13.88888888888889" font-weight="normal" font-style="normal" text-decoration="none" fill="#333333" opacity="1" x="22.252" text-anchor="start" y="12.5" textLength="98.8294677734375" style="font-family: Arial, Helvetica Neue, Helvetica, sans-serif;">Sub Scenario  1</tspan></text></g></g><g width="193.5" height="345" transform="scale(1,1) translate(3500.5,1161.902)"><g fill="#545454" stroke="#545454" stroke-opacity="1" transform="scale(1,1) translate(0,0)"><path fill="none" stroke-width="1" stroke-dasharray="none" d="M0,172.5 L0,172.5 M0,172.5 L0,172.5 M0,172.5 L0,172.5 M0,172.5 L193.5,0 M0,172.5 L193.5,115 M0,172.5 L193.5,230 M0,172.5 L193.5,345"/><g><g stroke-dasharray="none"><path d="M-5,167.5L5,167.5L5,177.5L-5,177.5z" stroke-width="0" fill="none"/></g></g></g><g stroke-width="0" stroke-dasharray="none" fill="#FFFFFF" opacity="1" width="164.096" height="17.278" transform="scale(1,1) translate(14.702,77.611)"><rect width="164.096" height="17.278"/></g><g width="162.0957794189453" height="172.5" transform="scale(1,1) translate(15.702,78.611)"><text width="162.0957794189453" height="15.277776718139648" transform="scale(1,1) translate(0,0)" xml:space="preserve"><tspan xml:space="preserve" text-rendering="optimizeSpeed" font-size="13.88888888888889" font-weight="normal" font-style="normal" text-decoration="none" fill="#333333" opacity="1" x="0" text-anchor="start" y="12.5" textLength="162.0957794189453" style="font-family: Arial, Helvetica Neue, Helvetica, sans-serif;">Energy Carrier Price Set 1</tspan></text></g><g stroke-width="0" stroke-dasharray="none" fill="#FFFFFF" opacity="1" width="164.096" height="17.278" transform="scale(1,1) translate(14.702,135.111)"><rect width="164.096" height="17.278"/></g><g width="162.0957794189453" height="57.5" transform="scale(1,1) translate(15.702,136.111)"><text width="162.0957794189453" height="15.277776718139648" transform="scale(1,1) translate(0,0)" xml:space="preserve"><tspan xml:space="preserve" text-rendering="optimizeSpeed" font-size="13.88888888888889" font-weight="normal" font-style="normal" text-decoration="none" fill="#333333" opacity="1" x="0" text-anchor="start" y="12.5" textLength="162.0957794189453" style="font-family: Arial, Helvetica Neue, Helvetica, sans-serif;">Energy Carrier Price Set 2</tspan></text></g><g stroke-width="0" stroke-dasharray="none" fill="#FFFFFF" opacity="1" width="164.096" height="17.278" transform="scale(1,1) translate(14.702,192.611)"><rect width="164.096" height="17.278"/></g><g width="162.0957794189453" height="57.5" transform="scale(1,1) translate(15.702,193.611)"><text width="162.0957794189453" height="15.277776718139648" transform="scale(1,1) translate(0,0)" xml:space="preserve"><tspan xml:space="preserve" text-rendering="optimizeSpeed" font-size="13.88888888888889" font-weight="normal" font-style="normal" text-decoration="none" fill="#333333" opacity="1" x="0" text-anchor="start" y="12.5" textLength="162.0957794189453" style="font-family: Arial, Helvetica Neue, Helvetica, sans-serif;">Energy Carrier Price Set 3</tspan></text></g><g stroke-width="0" stroke-dasharray="none" fill="#FFFFFF" opacity="1" width="164.096" height="17.278" transform="scale(1,1) translate(14.702,250.111)"><rect width="164.096" height="17.278"/></g><g width="162.0957794189453" height="172.5" transform="scale(1,1) translate(15.702,251.111)"><text width="162.0957794189453" height="15.277776718139648" transform="scale(1,1) translate(0,0)" xml:space="preserve"><tspan xml:space="preserve" text-rendering="optimizeSpeed" font-size="13.88888888888889" font-weight="normal" font-style="normal" text-decoration="none" fill="#333333" opacity="1" x="0" text-anchor="start" y="12.5" textLength="162.0957794189453" style="font-family: Arial, Helvetica Neue, Helvetica, sans-serif;">Energy Carrier Price Set 4</tspan></text></g></g><g width="193.5" height="460" transform="scale(1,1) translate(3157,1334.402)"><g fill="#545454" stroke="#545454" stroke-opacity="1" transform="scale(1,1) translate(0,0)"><path fill="none" stroke-width="1" stroke-dasharray="none" d="M0,230 L0,230 M0,230 L0,230 M0,230 L0,230 M0,230 L193.5,0 M0,230 L193.5,460"/><g><g stroke-dasharray="none"><path d="M-5,225L5,225L5,235L-5,235z" stroke-width="0" fill="none"/></g></g></g><g stroke-width="0" stroke-dasharray="none" fill="#FFFFFF" opacity="1" width="98.483" height="17.278" transform="scale(1,1) translate(47.508,106.361)"><rect width="98.483" height="17.278"/></g><g width="96.4830093383789" height="230" transform="scale(1,1) translate(48.508,107.361)"><text width="96.4830093383789" height="15.277776718139648" transform="scale(1,1) translate(0,0)" xml:space="preserve"><tspan xml:space="preserve" text-rendering="optimizeSpeed" font-size="13.88888888888889" font-weight="normal" font-style="normal" text-decoration="none" fill="#333333" opacity="1" x="0" text-anchor="start" y="12.5" textLength="96.4830093383789" style="font-family: Arial, Helvetica Neue, Helvetica, sans-serif;">CO2 Price High</tspan></text></g><g stroke-width="0" stroke-dasharray="none" fill="#FFFFFF" opacity="1" width="94.631" height="17.278" transform="scale(1,1) translate(49.434,336.361)"><rect width="94.631" height="17.278"/></g><g width="92.63101196289062" height="230" transform="scale(1,1) translate(50.434,337.361)"><text width="92.63101196289062" height="15.277776718139648" transform="scale(1,1) translate(0,0)" xml:space="preserve"><tspan xml:space="preserve" text-rendering="optimizeSpeed" font-size="13.88888888888889" font-weight="normal" font-style="normal" text-decoration="none" fill="#333333" opacity="1" x="0" text-anchor="start" y="12.5" textLength="92.63101196289062" style="font-family: Arial, Helvetica Neue, Helvetica, sans-serif;">CO2 Price Low</tspan></text></g></g><g width="150" height="75" transform="scale(1,1) translate(3350.5,2217.366)"><g stroke="#B3D7EE" stroke-opacity="1" stroke-width="1" stroke-dasharray="none" width="150" height="75" transform="scale(1,1) translate(0,0)" fill="#B3D7EE" fill-opacity="1"><rect width="150" height="75"/></g><g width="143.33333333333331" height="68.33333333333333" transform="scale(1,1) translate(3.333,3.333)"><text width="143.33333333333331" height="15.277776718139648" transform="scale(1,1) translate(0,26.52777830759684)" xml:space="preserve"><tspan xml:space="preserve" text-rendering="optimizeSpeed" font-size="13.88888888888889" font-weight="normal" font-style="normal" text-decoration="none" fill="#333333" opacity="1" x="24.181" text-anchor="start" y="12.5" textLength="94.97068786621094" style="font-family: Arial, Helvetica Neue, Helvetica, sans-serif;">Sub Scenario 2</tspan></text></g></g><g width="385.918" height="75" transform="scale(1,1) translate(3694,1124.402)"><g stroke="#B3D7EE" stroke-opacity="1" stroke-width="1" stroke-dasharray="none" width="385.918" height="75" transform="scale(1,1) translate(0,0)" fill="#B3D7EE" fill-opacity="1"><rect width="385.918" height="75"/></g><g width="379.25149311859224" height="68.33333333333333" transform="scale(1,1) translate(3.333,3.333)"><text width="379.25149311859224" height="15.277776718139648" transform="scale(1,1) translate(0,26.52777830759684)" xml:space="preserve"><tspan xml:space="preserve" text-rendering="optimizeSpeed" font-size="13.88888888888889" font-weight="normal" font-style="normal" text-decoration="none" fill="#333333" opacity="1" x="7.456" text-anchor="start" y="12.5" textLength="364.33917236328125" style="font-family: Arial, Helvetica Neue, Helvetica, sans-serif;">Portfolio a_CO2 Price High_Energy Carrier Price Set 1.xlsx</tspan></text></g></g><g width="150" height="75" transform="scale(1,1) translate(3350.5,1296.902)"><g stroke="#B3D7EE" stroke-opacity="1" stroke-width="1" stroke-dasharray="none" width="150" height="75" transform="scale(1,1) translate(0,0)" fill="#B3D7EE" fill-opacity="1"><rect width="150" height="75"/></g><g width="143.33333333333331" height="68.33333333333333" transform="scale(1,1) translate(3.333,3.333)"><text width="143.33333333333331" height="15.277776718139648" transform="scale(1,1) translate(0,26.52777830759684)" xml:space="preserve"><tspan xml:space="preserve" text-rendering="optimizeSpeed" font-size="13.88888888888889" font-weight="normal" font-style="normal" text-decoration="none" fill="#333333" opacity="1" x="24.181" text-anchor="start" y="12.5" textLength="94.97068786621094" style="font-family: Arial, Helvetica Neue, Helvetica, sans-serif;">Sub Scenario 2</tspan></text></g></g><g width="193.5" height="345.927" transform="scale(1,1) translate(3500.5,2081.902)"><g fill="#545454" stroke="#545454" stroke-opacity="1" transform="scale(1,1) translate(0,0)"><path fill="none" stroke-width="1" stroke-dasharray="none" d="M0,172.964 L0,172.964 M0,172.964 L0,172.964 M0,172.964 L0,172.964 M0,172.964 L193.5,0 M0,172.964 L193.5,115 M0,172.964 L193.5,230.297 M0,172.964 L193.5,345.927"/><g><g stroke-dasharray="none"><path d="M-5,167.964L5,167.964L5,177.964L-5,177.964z" stroke-width="0" fill="none"/></g></g></g><g stroke-width="0" stroke-dasharray="none" fill="#FFFFFF" opacity="1" width="164.096" height="17.278" transform="scale(1,1) translate(14.702,77.843)"><rect width="164.096" height="17.278"/></g><g width="162.0957794189453" height="172.96373961497943" transform="scale(1,1) translate(15.702,78.843)"><text width="162.0957794189453" height="15.277776718139648" transform="scale(1,1) translate(0,0)" xml:space="preserve"><tspan xml:space="preserve" text-rendering="optimizeSpeed" font-size="13.88888888888889" font-weight="normal" font-style="normal" text-decoration="none" fill="#333333" opacity="1" x="0" text-anchor="start" y="12.5" textLength="162.0957794189453" style="font-family: Arial, Helvetica Neue, Helvetica, sans-serif;">Energy Carrier Price Set 1</tspan></text></g><g stroke-width="0" stroke-dasharray="none" fill="#FFFFFF" opacity="1" width="164.096" height="17.278" transform="scale(1,1) translate(14.702,135.343)"><rect width="164.096" height="17.278"/></g><g width="162.0957794189453" height="57.96373961497943" transform="scale(1,1) translate(15.702,136.343)"><text width="162.0957794189453" height="15.277776718139648" transform="scale(1,1) translate(0,0)" xml:space="preserve"><tspan xml:space="preserve" text-rendering="optimizeSpeed" font-size="13.88888888888889" font-weight="normal" font-style="normal" text-decoration="none" fill="#333333" opacity="1" x="0" text-anchor="start" y="12.5" textLength="162.0957794189453" style="font-family: Arial, Helvetica Neue, Helvetica, sans-serif;">Energy Carrier Price Set 2</tspan></text></g><g stroke-width="0" stroke-dasharray="none" fill="#FFFFFF" opacity="1" width="164.096" height="17.278" transform="scale(1,1) translate(14.702,192.992)"><rect width="164.096" height="17.278"/></g><g width="162.0957794189453" height="57.33333333333326" transform="scale(1,1) translate(15.702,193.992)"><text width="162.0957794189453" height="15.277776718139648" transform="scale(1,1) translate(0,0)" xml:space="preserve"><tspan xml:space="preserve" text-rendering="optimizeSpeed" font-size="13.88888888888889" font-weight="normal" font-style="normal" text-decoration="none" fill="#333333" opacity="1" x="0" text-anchor="start" y="12.5" textLength="162.0957794189453" style="font-family: Arial, Helvetica Neue, Helvetica, sans-serif;">Energy Carrier Price Set 3</tspan></text></g><g stroke-width="0" stroke-dasharray="none" fill="#FFFFFF" opacity="1" width="164.096" height="17.278" transform="scale(1,1) translate(14.702,250.807)"><rect width="164.096" height="17.278"/></g><g width="162.0957794189453" height="172.96373961497943" transform="scale(1,1) translate(15.702,251.807)"><text width="162.0957794189453" height="15.277776718139648" transform="scale(1,1) translate(0,0)" xml:space="preserve"><tspan xml:space="preserve" text-rendering="optimizeSpeed" font-size="13.88888888888889" font-weight="normal" font-style="normal" text-decoration="none" fill="#333333" opacity="1" x="0" text-anchor="start" y="12.5" textLength="162.0957794189453" style="font-family: Arial, Helvetica Neue, Helvetica, sans-serif;">Energy Carrier Price Set 4</tspan></text></g></g><g width="150" height="75" transform="scale(1,1) translate(3350.5,1756.902)"><g stroke="#B3D7EE" stroke-opacity="1" stroke-width="1" stroke-dasharray="none" width="150" height="75" transform="scale(1,1) translate(0,0)" fill="#B3D7EE" fill-opacity="1"><rect width="150" height="75"/></g><g width="143.33333333333331" height="68.33333333333333" transform="scale(1,1) translate(3.333,3.333)"><text width="143.33333333333331" height="15.277776718139648" transform="scale(1,1) translate(0,26.52777830759684)" xml:space="preserve"><tspan xml:space="preserve" text-rendering="optimizeSpeed" font-size="13.88888888888889" font-weight="normal" font-style="normal" text-decoration="none" fill="#333333" opacity="1" x="24.181" text-anchor="start" y="12.5" textLength="94.97068786621094" style="font-family: Arial, Helvetica Neue, Helvetica, sans-serif;">Sub Scenario 2</tspan></text></g></g><g width="193" height="0" transform="scale(1,1) translate(4089.218,2543.163)"><g fill="#545454" stroke="#545454" stroke-opacity="1" transform="scale(1,1) translate(0,0)"><path fill="none" stroke-width="1" stroke-dasharray="none" d="M0,0"/></g></g><g width="193.5" height="345" transform="scale(1,1) translate(3500.5,1621.902)"><g fill="#545454" stroke="#545454" stroke-opacity="1" transform="scale(1,1) translate(0,0)"><path fill="none" stroke-width="1" stroke-dasharray="none" d="M0,172.5 L0,172.5 M0,172.5 L0,172.5 M0,172.5 L0,172.5 M0,172.5 L193.5,0 M0,172.5 L193.5,115 M0,172.5 L193.5,230 M0,172.5 L193.5,345"/><g><g stroke-dasharray="none"><path d="M-5,167.5L5,167.5L5,177.5L-5,177.5z" stroke-width="0" fill="none"/></g></g></g><g stroke-width="0" stroke-dasharray="none" fill="#FFFFFF" opacity="1" width="164.096" height="17.278" transform="scale(1,1) translate(14.702,77.611)"><rect width="164.096" height="17.278"/></g><g width="162.0957794189453" height="172.5" transform="scale(1,1) translate(15.702,78.611)"><text width="162.0957794189453" height="15.277776718139648" transform="scale(1,1) translate(0,0)" xml:space="preserve"><tspan xml:space="preserve" text-rendering="optimizeSpeed" font-size="13.88888888888889" font-weight="normal" font-style="normal" text-decoration="none" fill="#333333" opacity="1" x="0" text-anchor="start" y="12.5" textLength="162.0957794189453" style="font-family: Arial, Helvetica Neue, Helvetica, sans-serif;">Energy Carrier Price Set 1</tspan></text></g><g stroke-width="0" stroke-dasharray="none" fill="#FFFFFF" opacity="1" width="164.096" height="17.278" transform="scale(1,1) translate(14.702,135.111)"><rect width="164.096" height="17.278"/></g><g width="162.0957794189453" height="57.5" transform="scale(1,1) translate(15.702,136.111)"><text width="162.0957794189453" height="15.277776718139648" transform="scale(1,1) translate(0,0)" xml:space="preserve"><tspan xml:space="preserve" text-rendering="optimizeSpeed" font-size="13.88888888888889" font-weight="normal" font-style="normal" text-decoration="none" fill="#333333" opacity="1" x="0" text-anchor="start" y="12.5" textLength="162.0957794189453" style="font-family: Arial, Helvetica Neue, Helvetica, sans-serif;">Energy Carrier Price Set 2</tspan></text></g><g stroke-width="0" stroke-dasharray="none" fill="#FFFFFF" opacity="1" width="164.096" height="17.278" transform="scale(1,1) translate(14.702,192.611)"><rect width="164.096" height="17.278"/></g><g width="162.0957794189453" height="57.5" transform="scale(1,1) translate(15.702,193.611)"><text width="162.0957794189453" height="15.277776718139648" transform="scale(1,1) translate(0,0)" xml:space="preserve"><tspan xml:space="preserve" text-rendering="optimizeSpeed" font-size="13.88888888888889" font-weight="normal" font-style="normal" text-decoration="none" fill="#333333" opacity="1" x="0" text-anchor="start" y="12.5" textLength="162.0957794189453" style="font-family: Arial, Helvetica Neue, Helvetica, sans-serif;">Energy Carrier Price Set 3</tspan></text></g><g stroke-width="0" stroke-dasharray="none" fill="#FFFFFF" opacity="1" width="164.096" height="17.278" transform="scale(1,1) translate(14.702,250.111)"><rect width="164.096" height="17.278"/></g><g width="162.0957794189453" height="172.5" transform="scale(1,1) translate(15.702,251.111)"><text width="162.0957794189453" height="15.277776718139648" transform="scale(1,1) translate(0,0)" xml:space="preserve"><tspan xml:space="preserve" text-rendering="optimizeSpeed" font-size="13.88888888888889" font-weight="normal" font-style="normal" text-decoration="none" fill="#333333" opacity="1" x="0" text-anchor="start" y="12.5" textLength="162.0957794189453" style="font-family: Arial, Helvetica Neue, Helvetica, sans-serif;">Energy Carrier Price Set 4</tspan></text></g></g><g width="150" height="75" transform="scale(1,1) translate(3350.5,2678.163)"><g stroke="#B3D7EE" stroke-opacity="1" stroke-width="1" stroke-dasharray="none" width="150" height="75" transform="scale(1,1) translate(0,0)" fill="#B3D7EE" fill-opacity="1"><rect width="150" height="75"/></g><g width="143.33333333333331" height="68.33333333333333" transform="scale(1,1) translate(3.333,3.333)"><text width="143.33333333333331" height="15.277776718139648" transform="scale(1,1) translate(0,26.52777830759684)" xml:space="preserve"><tspan xml:space="preserve" text-rendering="optimizeSpeed" font-size="13.88888888888889" font-weight="normal" font-style="normal" text-decoration="none" fill="#333333" opacity="1" x="24.181" text-anchor="start" y="12.5" textLength="94.97068786621094" style="font-family: Arial, Helvetica Neue, Helvetica, sans-serif;">Sub Scenario 2</tspan></text></g></g><g width="382.818" height="75" transform="scale(1,1) translate(3694,1239.402)"><g stroke="#B3D7EE" stroke-opacity="1" stroke-width="1" stroke-dasharray="none" width="382.818" height="75" transform="scale(1,1) translate(0,0)" fill="#B3D7EE" fill-opacity="1"><rect width="382.818" height="75"/></g><g width="376.15148804672464" height="68.33333333333333" transform="scale(1,1) translate(3.333,3.333)"><text width="376.15148804672464" height="15.277776718139648" transform="scale(1,1) translate(0,26.52777830759684)" xml:space="preserve"><tspan xml:space="preserve" text-rendering="optimizeSpeed" font-size="13.88888888888889" font-weight="normal" font-style="normal" text-decoration="none" fill="#333333" opacity="1" x="164.54" text-anchor="start" y="12.5" textLength="47.07166290283203" style="font-family: Arial, Helvetica Neue, Helvetica, sans-serif;">.... .xlsx</tspan></text></g></g><g width="193.5" height="345" transform="scale(1,1) translate(3500.5,2543.163)"><g fill="#545454" stroke="#545454" stroke-opacity="1" transform="scale(1,1) translate(0,0)"><path fill="none" stroke-width="1" stroke-dasharray="none" d="M0,172.5 L0,172.5 M0,172.5 L0,172.5 M0,172.5 L0,172.5 M0,172.5 L193.5,0 M0,172.5 L193.5,115 M0,172.5 L193.5,230 M0,172.5 L193.5,345"/><g><g stroke-dasharray="none"><path d="M-5,167.5L5,167.5L5,177.5L-5,177.5z" stroke-width="0" fill="none"/></g></g></g><g stroke-width="0" stroke-dasharray="none" fill="#FFFFFF" opacity="1" width="164.096" height="17.278" transform="scale(1,1) translate(14.702,77.611)"><rect width="164.096" height="17.278"/></g><g width="162.0957794189453" height="172.5" transform="scale(1,1) translate(15.702,78.611)"><text width="162.0957794189453" height="15.277776718139648" transform="scale(1,1) translate(0,0)" xml:space="preserve"><tspan xml:space="preserve" text-rendering="optimizeSpeed" font-size="13.88888888888889" font-weight="normal" font-style="normal" text-decoration="none" fill="#333333" opacity="1" x="0" text-anchor="start" y="12.5" textLength="162.0957794189453" style="font-family: Arial, Helvetica Neue, Helvetica, sans-serif;">Energy Carrier Price Set 1</tspan></text></g><g stroke-width="0" stroke-dasharray="none" fill="#FFFFFF" opacity="1" width="164.096" height="17.278" transform="scale(1,1) translate(14.702,135.111)"><rect width="164.096" height="17.278"/></g><g width="162.0957794189453" height="57.5" transform="scale(1,1) translate(15.702,136.111)"><text width="162.0957794189453" height="15.277776718139648" transform="scale(1,1) translate(0,0)" xml:space="preserve"><tspan xml:space="preserve" text-rendering="optimizeSpeed" font-size="13.88888888888889" font-weight="normal" font-style="normal" text-decoration="none" fill="#333333" opacity="1" x="0" text-anchor="start" y="12.5" textLength="162.0957794189453" style="font-family: Arial, Helvetica Neue, Helvetica, sans-serif;">Energy Carrier Price Set 2</tspan></text></g><g stroke-width="0" stroke-dasharray="none" fill="#FFFFFF" opacity="1" width="164.096" height="17.278" transform="scale(1,1) translate(14.702,192.611)"><rect width="164.096" height="17.278"/></g><g width="162.0957794189453" height="57.5" transform="scale(1,1) translate(15.702,193.611)"><text width="162.0957794189453" height="15.277776718139648" transform="scale(1,1) translate(0,0)" xml:space="preserve"><tspan xml:space="preserve" text-rendering="optimizeSpeed" font-size="13.88888888888889" font-weight="normal" font-style="normal" text-decoration="none" fill="#333333" opacity="1" x="0" text-anchor="start" y="12.5" textLength="162.0957794189453" style="font-family: Arial, Helvetica Neue, Helvetica, sans-serif;">Energy Carrier Price Set 3</tspan></text></g><g stroke-width="0" stroke-dasharray="none" fill="#FFFFFF" opacity="1" width="164.096" height="17.278" transform="scale(1,1) translate(14.702,250.111)"><rect width="164.096" height="17.278"/></g><g width="162.0957794189453" height="172.5" transform="scale(1,1) translate(15.702,251.111)"><text width="162.0957794189453" height="15.277776718139648" transform="scale(1,1) translate(0,0)" xml:space="preserve"><tspan xml:space="preserve" text-rendering="optimizeSpeed" font-size="13.88888888888889" font-weight="normal" font-style="normal" text-decoration="none" fill="#333333" opacity="1" x="0" text-anchor="start" y="12.5" textLength="162.0957794189453" style="font-family: Arial, Helvetica Neue, Helvetica, sans-serif;">Energy Carrier Price Set 4</tspan></text></g></g><g width="395.218" height="75" transform="scale(1,1) translate(3694,2505.663)"><g stroke="#B3D7EE" stroke-opacity="1" stroke-width="1" stroke-dasharray="none" width="395.218" height="75" transform="scale(1,1) translate(0,0)" fill="#B3D7EE" fill-opacity="1"><rect width="395.218" height="75"/></g><g width="388.55151288537655" height="68.33333333333333" transform="scale(1,1) translate(3.333,3.333)"><text width="388.55151288537655" height="15.277776718139648" transform="scale(1,1) translate(0,26.52777830759684)" xml:space="preserve"><tspan xml:space="preserve" text-rendering="optimizeSpeed" font-size="13.88888888888889" font-weight="normal" font-style="normal" text-decoration="none" fill="#333333" opacity="1" x="170.74" text-anchor="start" y="12.5" textLength="47.07166290283203" style="font-family: Arial, Helvetica Neue, Helvetica, sans-serif;">.... .xlsx</tspan></text></g></g><g width="193" height="0" transform="scale(1,1) translate(4094.488,2773.163)"><g fill="#545454" stroke="#545454" stroke-opacity="1" transform="scale(1,1) translate(0,0)"><path fill="none" stroke-width="1" stroke-dasharray="none" d="M0,0"/></g></g><g width="400.488" height="75" transform="scale(1,1) translate(3694,2735.663)"><g stroke="#B3D7EE" stroke-opacity="1" stroke-width="1" stroke-dasharray="none" width="400.488" height="75" transform="scale(1,1) translate(0,0)" fill="#B3D7EE" fill-opacity="1"><rect width="400.488" height="75"/></g><g width="393.821522311215" height="68.33333333333333" transform="scale(1,1) translate(3.333,3.333)"><text width="393.821522311215" height="15.277776718139648" transform="scale(1,1) translate(0,26.52777830759684)" xml:space="preserve"><tspan xml:space="preserve" text-rendering="optimizeSpeed" font-size="13.88888888888889" font-weight="normal" font-style="normal" text-decoration="none" fill="#333333" opacity="1" x="173.375" text-anchor="start" y="12.5" textLength="47.07166290283203" style="font-family: Arial, Helvetica Neue, Helvetica, sans-serif;">.... .xlsx</tspan></text></g></g><g width="382.818" height="75" transform="scale(1,1) translate(3694,1584.402)"><g stroke="#B3D7EE" stroke-opacity="1" stroke-width="1" stroke-dasharray="none" width="382.818" height="75" transform="scale(1,1) translate(0,0)" fill="#B3D7EE" fill-opacity="1"><rect width="382.818" height="75"/></g><g width="376.15148704889526" height="68.33333333333333" transform="scale(1,1) translate(3.333,3.333)"><text width="376.15148704889526" height="15.277776718139648" transform="scale(1,1) translate(0,26.52777830759684)" xml:space="preserve"><tspan xml:space="preserve" text-rendering="optimizeSpeed" font-size="13.88888888888889" font-weight="normal" font-style="normal" text-decoration="none" fill="#333333" opacity="1" x="164.54" text-anchor="start" y="12.5" textLength="47.07166290283203" style="font-family: Arial, Helvetica Neue, Helvetica, sans-serif;">.... .xlsx</tspan></text></g></g><g width="193" height="0" transform="scale(1,1) translate(4079.918,1736.902)"><g fill="#545454" stroke="#545454" stroke-opacity="1" transform="scale(1,1) translate(0,0)"><path fill="none" stroke-width="1" stroke-dasharray="none" d="M0,0"/></g></g><g width="193" height="0" transform="scale(1,1) translate(4073.718,1391.902)"><g fill="#545454" stroke="#545454" stroke-opacity="1" transform="scale(1,1) translate(0,0)"><path fill="none" stroke-width="1" stroke-dasharray="none" d="M0,0"/></g></g><g width="379.718" height="75" transform="scale(1,1) translate(3694,1354.402)"><g stroke="#B3D7EE" stroke-opacity="1" stroke-width="1" stroke-dasharray="none" width="379.718" height="75" transform="scale(1,1) translate(0,0)" fill="#B3D7EE" fill-opacity="1"><rect width="379.718" height="75"/></g><g width="373.0514799703877" height="68.33333333333333" transform="scale(1,1) translate(3.333,3.333)"><text width="373.0514799703877" height="15.277776718139648" transform="scale(1,1) translate(0,26.52777830759684)" xml:space="preserve"><tspan xml:space="preserve" text-rendering="optimizeSpeed" font-size="13.88888888888889" font-weight="normal" font-style="normal" text-decoration="none" fill="#333333" opacity="1" x="162.99" text-anchor="start" y="12.5" textLength="47.07166290283203" style="font-family: Arial, Helvetica Neue, Helvetica, sans-serif;">.... .xlsx</tspan></text></g></g><g width="193" height="0" transform="scale(1,1) translate(4079.918,1506.902)"><g fill="#545454" stroke="#545454" stroke-opacity="1" transform="scale(1,1) translate(0,0)"><path fill="none" stroke-width="1" stroke-dasharray="none" d="M0,0"/></g></g><g width="385.918" height="75" transform="scale(1,1) translate(3694,1469.402)"><g stroke="#B3D7EE" stroke-opacity="1" stroke-width="1" stroke-dasharray="none" width="385.918" height="75" transform="scale(1,1) translate(0,0)" fill="#B3D7EE" fill-opacity="1"><rect width="385.918" height="75"/></g><g width="379.25149290310566" height="68.33333333333333" transform="scale(1,1) translate(3.333,3.333)"><text width="379.25149290310566" height="15.277776718139648" transform="scale(1,1) translate(0,26.52777830759684)" xml:space="preserve"><tspan xml:space="preserve" text-rendering="optimizeSpeed" font-size="13.88888888888889" font-weight="normal" font-style="normal" text-decoration="none" fill="#333333" opacity="1" x="166.09" text-anchor="start" y="12.5" textLength="47.07166290283203" style="font-family: Arial, Helvetica Neue, Helvetica, sans-serif;">.... .xlsx</tspan></text></g></g><g width="193" height="0" transform="scale(1,1) translate(4067.518,1851.902)"><g fill="#545454" stroke="#545454" stroke-opacity="1" transform="scale(1,1) translate(0,0)"><path fill="none" stroke-width="1" stroke-dasharray="none" d="M0,0"/></g></g><g width="373.518" height="75" transform="scale(1,1) translate(3694,1814.402)"><g stroke="#B3D7EE" stroke-opacity="1" stroke-width="1" stroke-dasharray="none" width="373.518" height="75" transform="scale(1,1) translate(0,0)" fill="#B3D7EE" fill-opacity="1"><rect width="373.518" height="75"/></g><g width="366.8514680453471" height="68.33333333333333" transform="scale(1,1) translate(3.333,3.333)"><text width="366.8514680453471" height="15.277776718139648" transform="scale(1,1) translate(0,26.52777830759684)" xml:space="preserve"><tspan xml:space="preserve" text-rendering="optimizeSpeed" font-size="13.88888888888889" font-weight="normal" font-style="normal" text-decoration="none" fill="#333333" opacity="1" x="159.89" text-anchor="start" y="12.5" textLength="47.07166290283203" style="font-family: Arial, Helvetica Neue, Helvetica, sans-serif;">.... .xlsx</tspan></text></g></g><g width="193" height="0" transform="scale(1,1) translate(4070.618,1966.902)"><g fill="#545454" stroke="#545454" stroke-opacity="1" transform="scale(1,1) translate(0,0)"><path fill="none" stroke-width="1" stroke-dasharray="none" d="M0,0"/></g></g><g width="376.618" height="75" transform="scale(1,1) translate(3694,1929.402)"><g stroke="#B3D7EE" stroke-opacity="1" stroke-width="1" stroke-dasharray="none" width="376.618" height="75" transform="scale(1,1) translate(0,0)" fill="#B3D7EE" fill-opacity="1"><rect width="376.618" height="75"/></g><g width="369.9514749448288" height="68.33333333333333" transform="scale(1,1) translate(3.333,3.333)"><text width="369.9514749448288" height="15.277776718139648" transform="scale(1,1) translate(0,26.52777830759684)" xml:space="preserve"><tspan xml:space="preserve" text-rendering="optimizeSpeed" font-size="13.88888888888889" font-weight="normal" font-style="normal" text-decoration="none" fill="#333333" opacity="1" x="161.44" text-anchor="start" y="12.5" textLength="47.07166290283203" style="font-family: Arial, Helvetica Neue, Helvetica, sans-serif;">.... .xlsx</tspan></text></g></g><g width="376.618" height="75" transform="scale(1,1) translate(3694,2044.402)"><g stroke="#B3D7EE" stroke-opacity="1" stroke-width="1" stroke-dasharray="none" width="376.618" height="75" transform="scale(1,1) translate(0,0)" fill="#B3D7EE" fill-opacity="1"><rect width="376.618" height="75"/></g><g width="369.95147441492855" height="68.33333333333333" transform="scale(1,1) translate(3.333,3.333)"><text width="369.95147441492855" height="15.277776718139648" transform="scale(1,1) translate(0,26.52777830759684)" xml:space="preserve"><tspan xml:space="preserve" text-rendering="optimizeSpeed" font-size="13.88888888888889" font-weight="normal" font-style="normal" text-decoration="none" fill="#333333" opacity="1" x="161.44" text-anchor="start" y="12.5" textLength="47.07166290283203" style="font-family: Arial, Helvetica Neue, Helvetica, sans-serif;">.... .xlsx</tspan></text></g></g><g width="193" height="0" transform="scale(1,1) translate(4076.818,2196.902)"><g fill="#545454" stroke="#545454" stroke-opacity="1" transform="scale(1,1) translate(0,0)"><path fill="none" stroke-width="1" stroke-dasharray="none" d="M0,0"/></g></g><g width="382.818" height="75" transform="scale(1,1) translate(3694,2159.402)"><g stroke="#B3D7EE" stroke-opacity="1" stroke-width="1" stroke-dasharray="none" width="382.818" height="75" transform="scale(1,1) translate(0,0)" fill="#B3D7EE" fill-opacity="1"><rect width="382.818" height="75"/></g><g width="376.1514873395898" height="68.33333333333333" transform="scale(1,1) translate(3.333,3.333)"><text width="376.1514873395898" height="15.277776718139648" transform="scale(1,1) translate(0,26.52777830759684)" xml:space="preserve"><tspan xml:space="preserve" text-rendering="optimizeSpeed" font-size="13.88888888888889" font-weight="normal" font-style="normal" text-decoration="none" fill="#333333" opacity="1" x="164.54" text-anchor="start" y="12.5" textLength="47.07166290283203" style="font-family: Arial, Helvetica Neue, Helvetica, sans-serif;">.... .xlsx</tspan></text></g></g><g width="193" height="0" transform="scale(1,1) translate(4076.818,2312.199)"><g fill="#545454" stroke="#545454" stroke-opacity="1" transform="scale(1,1) translate(0,0)"><path fill="none" stroke-width="1" stroke-dasharray="none" d="M0,0"/></g></g><g width="193" height="0" transform="scale(1,1) translate(4083.018,2427.83)"><g fill="#545454" stroke="#545454" stroke-opacity="1" transform="scale(1,1) translate(0,0)"><path fill="none" stroke-width="1" stroke-dasharray="none" d="M0,0"/></g></g><g width="389.018" height="75.667" transform="scale(1,1) translate(3694,2389.996)"><g stroke="#B3D7EE" stroke-opacity="1" stroke-width="1" stroke-dasharray="none" width="389.018" height="75.667" transform="scale(1,1) translate(0,0)" fill="#B3D7EE" fill-opacity="1"><rect width="389.018" height="75.667"/></g><g width="382.3515000083369" height="68.99999999999999" transform="scale(1,1) translate(3.333,3.333)"><text width="382.3515000083369" height="15.277776718139648" transform="scale(1,1) translate(0,26.86111164093017)" xml:space="preserve"><tspan xml:space="preserve" text-rendering="optimizeSpeed" font-size="13.88888888888889" font-weight="normal" font-style="normal" text-decoration="none" fill="#333333" opacity="1" x="167.64" text-anchor="start" y="12.5" textLength="47.07166290283203" style="font-family: Arial, Helvetica Neue, Helvetica, sans-serif;">.... .xlsx</tspan></text></g></g><g width="193" height="0" transform="scale(1,1) translate(4092.318,2658.163)"><g fill="#545454" stroke="#545454" stroke-opacity="1" transform="scale(1,1) translate(0,0)"><path fill="none" stroke-width="1" stroke-dasharray="none" d="M0,0"/></g></g><g width="398.318" height="75" transform="scale(1,1) translate(3694,2620.663)"><g stroke="#B3D7EE" stroke-opacity="1" stroke-width="1" stroke-dasharray="none" width="398.318" height="75" transform="scale(1,1) translate(0,0)" fill="#B3D7EE" fill-opacity="1"><rect width="398.318" height="75"/></g><g width="391.651518726131" height="68.33333333333333" transform="scale(1,1) translate(3.333,3.333)"><text width="391.651518726131" height="15.277776718139648" transform="scale(1,1) translate(0,26.52777830759684)" xml:space="preserve"><tspan xml:space="preserve" text-rendering="optimizeSpeed" font-size="13.88888888888889" font-weight="normal" font-style="normal" text-decoration="none" fill="#333333" opacity="1" x="172.29" text-anchor="start" y="12.5" textLength="47.07166290283203" style="font-family: Arial, Helvetica Neue, Helvetica, sans-serif;">.... .xlsx</tspan></text></g></g><g width="193" height="0" transform="scale(1,1) translate(4094.488,2888.163)"><g fill="#545454" stroke="#545454" stroke-opacity="1" transform="scale(1,1) translate(0,0)"><path fill="none" stroke-width="1" stroke-dasharray="none" d="M0,0"/></g></g><g width="400.488" height="75" transform="scale(1,1) translate(3694,2850.663)"><g stroke="#B3D7EE" stroke-opacity="1" stroke-width="1" stroke-dasharray="none" width="400.488" height="75" transform="scale(1,1) translate(0,0)" fill="#B3D7EE" fill-opacity="1"><rect width="400.488" height="75"/></g><g width="393.82152224640214" height="68.33333333333333" transform="scale(1,1) translate(3.333,3.333)"><text width="393.82152224640214" height="15.277776718139648" transform="scale(1,1) translate(0,26.52777830759684)" xml:space="preserve"><tspan xml:space="preserve" text-rendering="optimizeSpeed" font-size="13.88888888888889" font-weight="normal" font-style="normal" text-decoration="none" fill="#333333" opacity="1" x="16.284" text-anchor="start" y="12.5" textLength="361.2535095214844" style="font-family: Arial, Helvetica Neue, Helvetica, sans-serif;">Portfolio b_CO2 Price Low_Energy Carrier Price Set 4.xlsx</tspan></text></g></g><g width="385.918" height="75" transform="scale(1,1) translate(3694,1699.402)"><g stroke="#B3D7EE" stroke-opacity="1" stroke-width="1" stroke-dasharray="none" width="385.918" height="75" transform="scale(1,1) translate(0,0)" fill="#B3D7EE" fill-opacity="1"><rect width="385.918" height="75"/></g><g width="379.25149290865903" height="68.33333333333333" transform="scale(1,1) translate(3.333,3.333)"><text width="379.25149290865903" height="15.277776718139648" transform="scale(1,1) translate(0,26.52777830759684)" xml:space="preserve"><tspan xml:space="preserve" text-rendering="optimizeSpeed" font-size="13.88888888888889" font-weight="normal" font-style="normal" text-decoration="none" fill="#333333" opacity="1" x="8.999" text-anchor="start" y="12.5" textLength="361.2535095214844" style="font-family: Arial, Helvetica Neue, Helvetica, sans-serif;">Portfolio a_CO2 Price Low_Energy Carrier Price Set 2.xlsx</tspan></text></g></g><g width="382.818" height="75.594" transform="scale(1,1) translate(3694,2274.402)"><g stroke="#B3D7EE" stroke-opacity="1" stroke-width="1" stroke-dasharray="none" width="382.818" height="75.594" transform="scale(1,1) translate(0,0)" fill="#B3D7EE" fill-opacity="1"><rect width="382.818" height="75.594"/></g><g width="376.1514883049875" height="68.9274792299587" transform="scale(1,1) translate(3.333,3.333)"><text width="376.1514883049875" height="15.277776718139648" transform="scale(1,1) translate(0,26.82485125590953)" xml:space="preserve"><tspan xml:space="preserve" text-rendering="optimizeSpeed" font-size="13.88888888888889" font-weight="normal" font-style="normal" text-decoration="none" fill="#333333" opacity="1" x="5.906" text-anchor="start" y="12.5" textLength="364.33917236328125" style="font-family: Arial, Helvetica Neue, Helvetica, sans-serif;">Portfolio b_CO2 Price High_Energy Carrier Price Set 3.xlsx</tspan></text></g></g></g></svg>